<?xml version="1.0" encoding="UTF-8"?>
<svg id="Layer_1" data-name="Layer 1" xmlns="http://www.w3.org/2000/svg" version="1.1" viewBox="0 0 256.1 84.1">
  <defs>
    <style>
      .cls-1 {
        fill: #333;
      }

      .cls-1, .cls-2 {
        stroke-width: 0px;
      }

      .cls-2 {
        fill: #fff;
      }
    </style>
  </defs>
  <rect class="cls-1" x="0" y="-.2" width="256.1" height="84.3"/>
  <path class="cls-2" d="M212.8,78.8l4.9-10.9c1-2.2,1.3-2.6,2.3-2.9v-.7h-5.2v.7c1.7.4,1.9,1.2,1.1,3.1l-2,4.7-2.5-5.6c-.5-1.2-.4-1.9,1.4-2.2v-.8h-6.9v.8c.8.2,1.1.6,1.8,2l4.4,9.4-.7,1.6c-.4.9-.8,1.6-1.3,2-.3-1.1-.9-1.7-1.9-1.7s-1.8.6-1.8,1.9,1,2.2,2.2,2.2c1.7,0,2.7-.8,4-3.6M205.8,75.5l-.4-.8c-.7.3-1.3.5-1.9.5-1.2,0-1.6-.6-1.6-1.5v-7.9h3.3v-1.5h-3.3v-2.4h-.5l-4.7,3.1v.8h1.9v8.6c0,1.7,1,2.6,2.9,2.6s3-.5,4.2-1.4M195.9,75.8c-1.6-.2-1.9-.6-1.9-2v-10h-1.3l-3.9,2.5v.6h1.9v6.9c0,1.4-.3,1.8-1.9,2v.8h7v-.8ZM192.2,61.8c1.1,0,2-.9,2-2s-.8-1.8-1.8-1.8-2,.9-2,2,.8,1.8,1.8,1.8M187.6,72.8c0-2.4-2-3.2-3.9-3.8-1.9-.6-3.1-1-3.1-2.4s.6-1.4,1.6-1.4,2.5.8,3.9,2.4l.7-.3-1-3.2h-.4l-.5.4c-.7-.3-1.6-.5-2.5-.5-2.8,0-4.6,1.6-4.6,4s2,3.1,3.9,3.8c1.9.6,3.1,1,3.1,2.4s-.6,1.5-1.9,1.5-3.1-1.2-4.7-3.2l-.7.3,1,4.1h.4l.8-.6c.9.4,1.8.7,2.9.7,2.7,0,4.9-1.6,4.9-4.1M173.9,75.8c-1.7-.3-1.9-.6-1.9-2.2v-5.4c.5-.9,1-1.6,1.6-2.1,0,1,.7,1.7,1.6,1.7s1.8-.7,1.8-2.1-.6-1.9-1.8-1.9-2.3,1.1-3.2,2.6v-2.7h-1.1l-3.8,2.5v.6h1.8v7c0,1.4-.2,1.8-1.7,2v.8h6.9v-.8h0ZM157.5,68.7c0-2.1.9-3.4,2.6-3.4s2,.9,2.3,2.6l-4.9,1.7c0-.3,0-.6,0-.9M165.7,74.3l-.7-.6c-.7.8-1.8,1.4-3,1.4-2.4,0-3.8-1.8-4.3-4.2l7.9-2.6c-.2-2.8-2.2-4.3-4.8-4.3s-6.3,2.9-6.3,6.6,2.3,6.4,6.4,6.4c2.5,0,4-1.1,4.9-2.6M152,67.8c1-2.2,1.3-2.6,2.3-2.9v-.7h-5.2v.7c1.7.4,1.9,1.2,1.1,3.1l-2,4.7-2.5-5.6c-.5-1.2-.4-1.9,1.4-2.2v-.8h-6.9v.8c.8.2,1.1.6,1.8,2l4.5,9.7h1.4s4.1-8.9,4.1-8.9ZM140,75.8c-1.6-.2-1.9-.6-1.9-2v-10h-1.3l-3.9,2.5v.6h1.9v6.9c0,1.4-.3,1.8-1.9,2v.8h7v-.8h0ZM136.3,61.8c1.1,0,2-.9,2-2s-.8-1.8-1.8-1.8-2,.9-2,2c0,1,.8,1.8,1.8,1.8M123.1,75.8c-1.5-.2-1.7-.6-1.7-2v-6.1c1.3-1.2,2.4-1.8,3.3-1.8s1.7.7,1.7,1.8v6c0,1.4-.2,1.8-1.7,2v.8h6.7v-.8c-1.5-.2-1.7-.6-1.7-2v-6.3c0-2.1-.9-3.6-3.5-3.6s-3.2,1-4.8,2.3v-2.5h-1.2l-3.8,2.5v.6h1.8v7c0,1.4-.2,1.8-1.7,2v.8h6.7v-.8ZM94.6,60.4v7.9c0,5.1,2.7,8.6,9.3,8.6s9.3-3.5,9.3-8.5v-6.3c0-3.1.9-3.8,2.4-4.3v-.8h-6.3v.8c1.5.4,2.4,1.2,2.4,4.3v6.3c0,4.4-2.3,6.5-6.7,6.5s-6.7-2-6.7-6.5v-8c0-2,.6-2.3,2.2-2.6v-.9h-8v.9c1.7.2,2.2.6,2.2,2.6M245.8,47.5c-1.5-.2-1.7-.6-1.7-2v-6c1.3-1.2,2.4-1.8,3.3-1.8s1.6.7,1.6,1.8v6c0,1.4-.2,1.8-1.7,2v.8h6.7v-.8c-1.5-.2-1.7-.6-1.7-2v-6.3c0-2.1-.9-3.6-3.5-3.6s-3.2,1-4.8,2.3v-2.5h-1.2l-3.8,2.5v.6h1.8v7c0,1.4-.2,1.8-1.7,2v.8h6.7v-.8h0ZM235.3,47.5c-1.7-.3-1.9-.6-1.9-2.2v-5.4c.5-.9,1-1.6,1.6-2.1,0,1,.7,1.7,1.6,1.7s1.8-.7,1.8-2.1-.6-1.9-1.8-1.9-2.3,1.1-3.2,2.6v-2.7h-1.1l-3.8,2.5v.6h1.8v7c0,1.4-.2,1.8-1.7,2v.8h6.9v-.8h0ZM218.9,40.3c0-2.1.9-3.4,2.6-3.4s2,.9,2.3,2.6l-4.9,1.7c0-.3,0-.6,0-.9M227.1,45.9l-.7-.5c-.7.8-1.8,1.4-3,1.4-2.4,0-3.8-1.8-4.3-4.2l7.9-2.6c-.2-2.8-2.2-4.3-4.8-4.3s-6.3,2.9-6.3,6.6,2.3,6.4,6.4,6.4,4-1.1,4.9-2.6M215,47.1l-.4-.8c-.7.3-1.3.5-1.9.5-1.2,0-1.6-.6-1.6-1.5v-7.9h3.3v-1.5h-3.3v-2.4h-.5l-4.7,3.1v.8h1.9v8.6c0,1.7,1,2.6,2.9,2.6s3-.5,4.2-1.4M205.1,44.4c0-2.4-2-3.2-3.9-3.8-1.9-.6-3.1-1-3.1-2.4s.6-1.4,1.6-1.4,2.5.8,3.9,2.4l.7-.3-1-3.2h-.4l-.5.4c-.7-.3-1.6-.5-2.5-.5-2.8,0-4.6,1.6-4.6,4s2,3.1,3.9,3.8c1.9.6,3.1,1,3.1,2.4s-.6,1.5-1.9,1.5-3.1-1.2-4.7-3.2l-.7.3,1,4.1h.4l.8-.5c.9.4,1.8.7,2.9.7,2.7,0,4.9-1.6,4.9-4.1M185,44.9c0-1.3.6-2,3.7-2.8v3.8c-.7.6-1.4.8-2,.8-1,0-1.6-.5-1.6-1.8M190.7,48.4c1.1,0,2.3-.5,3.1-1.1l-.2-.7c-1.3.2-1.8,0-1.8-.8v-7c0-2.1-.9-3.2-3.9-3.2s-5.8,1.8-5.8,3.5.6,1.5,1.5,1.5,1.6-.7,1.8-1.4c.2-.8-.1-1.4-.5-1.8.6-.3,1.3-.5,2-.5,1.1,0,1.7.4,1.7,1.4v2.6c-4.7,1.2-6.8,2.2-6.8,4.7s1.2,2.9,3.2,2.9,2.6-.5,3.9-1.5c.2.9.8,1.3,1.9,1.3M172.2,40.3c0-2.1.9-3.4,2.6-3.4s2,.9,2.3,2.6l-4.9,1.7c0-.3,0-.6,0-.9M180.4,45.9l-.7-.5c-.7.8-1.8,1.4-3,1.4-2.4,0-3.8-1.8-4.3-4.2l7.9-2.6c-.2-2.8-2.2-4.3-4.8-4.3s-6.3,2.9-6.3,6.6,2.3,6.4,6.4,6.4c2.5,0,4-1.1,4.9-2.6M159.5,47.5c-1.5-.2-1.7-.6-1.7-2v-6.1c1.3-1.2,2.2-1.7,3.3-1.7s1.6.7,1.6,1.8v6c0,1.4-.2,1.8-1.7,2v.8h6.7v-.8c-1.5-.2-1.7-.6-1.7-2v-6.3c0-2.1-.9-3.6-3.5-3.6s-3.2.9-4.7,2.2v-10.4h-1l-4.2,2.8v.6h1.9v14.6c0,1.4-.2,1.8-1.7,2v.8h6.7v-.8h0ZM152,47.1l-.4-.8c-.7.3-1.3.5-1.9.5-1.2,0-1.6-.6-1.6-1.5v-7.9h3.3v-1.5h-3.3v-2.4h-.5l-4.7,3.1v.8h1.9v8.6c0,1.7,1,2.6,2.9,2.6s3-.5,4.2-1.4M139.2,47.5c-1.7-.3-1.9-.6-1.9-2.2v-5.4c.5-.9,1-1.6,1.6-2.1,0,1,.7,1.7,1.6,1.7s1.8-.7,1.8-2.1-.6-1.9-1.8-1.9-2.3,1.1-3.2,2.6v-2.7h-1.1l-3.8,2.5v.6h1.8v7c0,1.4-.2,1.8-1.7,2v.8h6.9v-.8h0ZM120.2,40.7c0-2.4,1-3.8,3.2-3.8s3.6,3.4,3.6,6.5-1,3.8-3.2,3.8-3.6-3.4-3.6-6.5M130.3,41.9c0-3.4-2.3-6.3-6.5-6.3s-6.8,3.1-6.8,6.6,2.3,6.3,6.5,6.3,6.8-3.1,6.8-6.6M113.2,33.7c0-3.1.9-3.9,2.4-4.3v-.8h-6.3v.8c1.5.4,2.4,1.2,2.4,4.3v9.2l-13.4-13.5c-.7-.7-1-.8-1.5-.8h-4.9v.8c1.1.1,1.7.5,2.9,1.7.4.4.8.8.8,1.5v10.5c0,3.1-.9,3.8-2.4,4.3v.8h6.3v-.8c-1.5-.4-2.4-1.2-2.4-4.3v-9.9l15,15.1h1.1v-14.7h0Z"/>
  <g>
    <path class="cls-2" d="M39.7,0C17.8,0,0,17.8,0,39.7s17.8,39.7,39.7,39.7,39.7-17.8,39.7-39.7S61.6,0,39.7,0ZM67,67c-7.3,7.3-17,11.3-27.3,11.3s-20-4-27.3-11.3S1,50,1,39.7,5,19.7,12.3,12.4C19.6,5.1,29.3,1,39.7,1s20,4,27.3,11.3c7.3,7.3,11.3,17,11.3,27.3,0,10.3-4,20-11.3,27.3Z"/>
    <path class="cls-2" d="M39.7,2.4C19.1,2.4,2.4,19.1,2.4,39.7s16.7,37.3,37.3,37.3,37.3-16.7,37.3-37.3S60.2,2.4,39.7,2.4ZM65.7,65.7c-7,7-16.2,10.8-26,10.8s-19.1-3.8-26-10.8c-7-7-10.8-16.2-10.8-26s3.8-19.1,10.8-26S29.8,2.8,39.7,2.8s19.1,3.8,26,10.8c7,7,10.8,16.2,10.8,26.1s-3.8,19.1-10.8,26.1Z"/>
    <path class="cls-2" d="M39.7,11.2c-15.7,0-28.4,12.8-28.4,28.4s12.8,28.4,28.4,28.4,28.4-12.8,28.4-28.4-12.8-28.4-28.4-28.4ZM39.7,67.7c-15.5,0-28-12.5-28-28s12.6-28,28-28,28,12.6,28,28-12.5,28-28,28Z"/>
    <path class="cls-2" d="M39.7,13c-14.7,0-26.6,12-26.6,26.6s12,26.7,26.6,26.7,26.7-12,26.7-26.7-12-26.6-26.7-26.6ZM43,18.8c.3.5.5,1,.5,1.7s0,.2,0,.3c0,0,0,0,0,0,0,0,0,.1,0,.2,0,.1-.1.3-.2.4-.2.2-.5.3-.8.3s-.5,0-.7-.2c0,0,0-.1,0-.2,0,0,0,0,0-.1,0,0,0,0,0,0h0c0-.2,0-.2,0-.2,0,0,0,0,0-.1,0,0,0-.2,0-.2,0-.5-.2-1-.5-1.5.2-.9.7-1.9,1.2-2.5,0,.9.2,1.6.5,2.2ZM43.7,19.5c.1-.4.2-.7.2-1,.6.6.9,1.3.9,1.9s0,.2,0,.3c0,0,0,0,0,0,0,0,0,.1,0,.2,0,0,0,0,0,.1,0,0,0,0,0,.1,0,0,0,0,0,.1,0,0,0,0,0,0,0,0,0,.1-.1.2h0c-.2.2-.4.3-.7.3s-.1,0-.2,0c.1-.1.2-.2.3-.4,0-.1,0-.2.1-.3h0c0-.2,0-.2,0-.2,0-.1,0-.2,0-.3,0-.4,0-.8-.2-1.1ZM54,54.3c.9,0,1.7-.3,2.3-.9s.6-.8.7-1.3c0,0,.2,0,.3.2,0,0,0,0,0,0s0,0,0,0c.2-.6,0-1.1-.4-1.8-.5-.7-1.5-1.1-2.6-1.1h0c-1.3,0-2,.6-2.3,1.1-.5.7-.5,1.5-.2,1.9,0,0,0,0,0,0s0,0,0,0c0-.1.2-.3.4-.3.7.6,1.9.7,2.8.6.5,0,.8-.2,1-.5.1-.2.1-.4,0-.6-.1-.5-.9-.6-1.4-.5-.5,0-.9.3-1.5,1,0,0,0,0,0,0s0,0,0,0c0-.4,0-.9,0-1.2.2-.3.9-.7,1.6-.7h0c.6,0,1.1.1,1.3.3.2.1.4.6.5,1,.2.6.2.9-.2,1.4-.3.4-1.1.9-2.2.9s-1.7-.2-2.4-.7c-.4-.5-.5-1-.2-2.8.3-2.3.2-5.1,0-7-.2-1.9-.6-4.1-.8-5.3-.1-.5-.2-.9-.2-1,0-.6.2-1.1.6-1.5.5-.5,1.1-.7,1.9-.7,1.3,0,2.1.4,2.3,1.2,0,.1,0,.6,0,1.2,0,1.4.1,3.7.5,6.5.6,4.3,1.3,5.9,1.8,7,.3.6.5,1,.5,1.7,0,.7-.2,1.2-.6,1.7-.8.9-2.5,1.3-4.5,1.3-.5,0-1,0-1.4,0,0-.2,0-.5.1-.8,0,0,0-.2,0-.2s-.2,0-.2,0c-.6.2-1.2.5-1.8.8-1-.1-2-.3-3-.4-1.9-.3-3.8-.6-6.2-.6-3.6,0-6.7.4-9.2.8-.9-.7-1.8-1-2.8-1.2.2-.3.4-.7.5-1.2.1-.6,0-1.4-.1-2.5-.2-1.8-.2-3.8,0-6.8.3-2.8.6-4.5.8-5.3,0-.2,0-.3.1-.4,1.3-.2,2.6-.3,3.8-.5,2-.3,3.9-.6,5.6-.6,3.1,0,5.5.3,7.5.6,1.2.2,2.3.3,3.4.4,0,.1,0,.3.1.5.3,1.2.6,3.4.8,5.3.2,1.9.2,4.7-.1,7-.3,2.3-.2,2.7.4,3.3.7.8,1.8.9,2.7,1h.2ZM59.6,30.2c1.6,1.4,2.5,3.1,2.5,4.8,0,1-.3,1.9-.9,2.7-.2.2-.4.4-.6.6.3-1.6.3-4,0-5.2,0,0,0,0,0,0,0,0,0,0,0,0,.2,1,.2,2.7-.4,5.6-.2-.8-.6-1.5-.9-2.2-.2-1.3,0-2.5.2-3.6.2-.9.3-1.9.2-2.7ZM61.6,43.9s0,0,0,0c-1.1.8-2.5,2.5-3.4,3.8.4-.8.7-1.8.7-2.9,0,0,0-.1,0-.2.1-.2.3-.4.5-.6.4-.4,1.1-.8,1.8-1.2.9-.5,1.9-1.1,2.6-1.8-.2,1.3-.8,4.1-2.4,5.7,0,0-.1,0-.2,0-.9.3-1.8.5-2.5.8,1.2-1.7,1.9-2.6,3-3.7,0,0,0,0,0,0ZM62.3,41.6c-.5.3-1,.6-1.4.9,0,0-.2,0-.3.2,0,0-.2,0-.3.1.5-1.4,1.1-2.5,2-3.8,0,0,0,0,0,0s0,0,0,0c-.6.7-1.3,1.6-2.2,3.6,0,0,0,0,0,0,.4-1,.4-2.1.2-3,.5-.9,1.3-1.5,2.2-2.2.5-.3.9-.9,1.3-1.3.2,2.3.1,4.3-1.5,5.7ZM59,43.8h0c0,0,0,.1-.2.2,0-1.6-.1-4.2-.7-5.7,0,0,0,0,0,0,0,0,0,0,0,0,.3,1.5.4,2.8.4,4.4-.3-.8-.8-1.5-1.4-2.3-.2-1.3,0-2.6.2-3.9,0-.7.2-1.4.2-2.1,1.4,1.7,4,5.7,1.6,9.3ZM58.4,44.8c0,1.5-.6,2.8-1.2,3.7,0-.3-.2-.6-.3-1,.1-1.6.2-3.3,0-4.1,0,0,0,0,0,0,0,0,0,0,0,0,0,1.2,0,2.1,0,3-.2-.8-.3-1.8-.5-3,0-.5-.1-1-.2-1.5.2-.6.3-1.2.3-1.8,1.4,1.2,2.2,3,2.2,4.7ZM49.8,56.1s0,0,0,0c-.7.7-1.9,2-3.1,3.5.3-.7.6-1.6.7-2.6.9-1,2.2-1.9,3.8-2.5-.4,2.4-1.3,4.3-2.8,5.6-.5,0-1.1,0-1.6,0,.5-.7,1-1.3,1.6-2,.6-.7,1.1-1.4,1.5-1.9,0,0,0,0,0,0ZM44.9,58.7s0,0,0,0c-.5,1.3-1.4,2.5-2.6,3.6-.2-3.4,1.7-4.6,3.6-5.9.4-.3.8-.5,1.2-.8,0,2.4-.8,5.9-4.4,7,1.1-1.5,1.8-2.4,2.3-3.9,0,0,0,0,0,0ZM42.3,54.4c1,0,2,.2,3,.3l.2,1.6c-1.1.7-2.3,1.5-3,2.7,0,0-.2-4.6-.2-4.6ZM51.2,55.5c.5,0,1,0,1.5,0h0c-.6.5-1.2,1-2,1.5.2-.5.3-1,.4-1.5ZM53.3,55.5c.7,0,1.4,0,2-.2-.2.3-.4.6-.7.8-1,.1-2,.4-2.9.8.6-.5,1.1-.9,1.6-1.3ZM38.9,54.3c.2,0,.4,0,.6,0v6.3c0,0,.1,0,.2,0s0,0,0,0v-6.3h.7v4.4c-.1,0-.1,0,0,0s0,0,0,0l.3-4.5c.2,0,.4,0,.5,0l-.5,7.5h-2.1l-.5-7.4c.2,0,.3,0,.5,0l.2,4.6s0,0,0,0,0,0,0,0c0,0-.1-4.6-.1-4.6ZM38.9,62.1h1.6c.6,0,.7,0,.8.1.1,0,.2.2.2.4s0,.3-.2.4c0,0-.2.1-.7.1h-1.7c-.5,0-.6,0-.7-.1-.1,0-.2-.2-.2-.4s0-.3.2-.4c0,0,.2-.1.8-.1ZM34.3,58.5c.4.6,1.5,2.5,2.2,4,0,0,0,0,0,0-.7-.7-1.4-1.2-2.1-1.5-1.7-1.8-1.8-4.1-1.8-5.4.4.4.9.7,1.3,1.1,1.7,1.3,3.5,2.5,3.2,5.8-.1-.2-.3-.5-.5-.9-.1-.2-.3-.4-.4-.7-.4-.7-1.2-2.1-1.7-2.5,0,0,0,0,0,0,0,0,0,0,0,0ZM29.3,58.7c.7.7,1.6,1.4,2.7,1.8-.4,0-.9,0-1.3,0-.5,0-.9,0-1.3,0-1.2-.6-2.2-1.5-2.9-2.8,2.2-.3,4.2-.1,6.1,1.2.2.7.5,1.2.9,1.8-1.8-.5-3.2-1.4-4.1-2,0,0,0,0,0,0,0,0,0,0,0,0ZM19.7,49.7c.4.3,1,.8,1.5,1.5-.1.4-.1.7-.1,1.2,0,.2,0,.4,0,.6-.1,0-.2,0-.4,0-.6-.3-1.1-.8-1.7-1.6-.3-.4-.5-.8-.8-1.3-.4-.7-.8-1.4-1.4-2.1.3,0,.6,0,.9.1,1.4.2,2.9.4,3.9,1.3-.1.2-.2.5-.3.7-.1.3-.2.5-.3.7-.5-.5-1-1-1.5-1.2,0,0,0,0,0,0,0,0,0,0,0,.1ZM22.4,43.7s0,0,0,0c-.4,1.2-.9,2.8-.7,5-2.2-3.5,0-6.7,1.6-8.5,0,.6.2,1.2.4,1.8,0,.5-.1,1-.2,1.5-.5,2.5-.9,4-1.3,5.1-.1-1.5,0-3.1.5-5,0,0,0,0,0,0ZM22.5,40.5c-.6.7-1.1,1.4-1.4,2.1h0c.3-1.6.5-4,.4-5,0,0,0,0,0,0,0,0,0,0,0,0,0,.8-.2,2.9-.6,4.8,0,0-.1-.2-.2-.2-.2-.6-.4-1.1-.8-1.5-.2-.7,0-1.3.2-2.2.2-.5.3-.7.5-1.4.2-.8.5-1.9.7-2.9,0,0,0,.2.1.2.8,1.8,1.9,4,1.2,6.1ZM19.6,38.4c-.2.6-.3,1.1-.3,1.5-.7-1.6-1.1-3.2-1.2-5.2,0,0,0,0,0,0s0,0,0,0c-.2,1.6.2,3.5.7,4.9-.3-.2-.6-.4-.9-.6-1.9-2.9-.5-6.7.3-8.4.2.6.4,1.6.7,2.2.6,1.5,1.1,3,1.1,4.8-.1.3-.2.5-.3.8ZM20.4,44.7c-.8-1.5-2.2-3.7-3.4-4.6,0,0,0,0,0,0,0,0,0,0,0,0,1.1,1.3,2,2.7,3,4.5-.7-.8-1.5-1.3-2.3-1.8-.4-.2-.7-.4-1-.7-.8-1-1-2.2-1-3.8,3.5,1.1,5,3.1,4.8,6.3ZM17.4,43.2c1,.7,2.2,1.4,2.9,2.7,0,.7.2,1.3.4,1.9h0c-.7-.8-1.5-1.7-3.2-3.2,0,0,0,0,0,0,0,0,0,0,0,0,.2.3.6.7,1,1.1.7.7,1.5,1.6,2.1,2.4-.5-.2-1.1-.3-1.6-.4-.6-.3-1.3-.7-1.8-1.4-1-1.2-1.6-2.9-1.5-4.8.5.5,1.2,1.1,1.9,1.5ZM21.9,50.2c.5-1.1,1.1-2.8,1.9-6.5.6-2.9.5-5.3.5-6.7,0-.7,0-1.2,0-1.4.4-1.1,1.7-1.5,2.7-1.3,1.8.4,2.2,1.7,2.2,2.2,0,.3,0,.6-.2,1.2-.2.8-.5,2.6-.9,5.3-.4,3-.3,5-.2,6.8.1,1,.2,1.8,0,2.3,0,.5-.3.9-.6,1.2-.5,0-1-.1-1.5-.1,0,0-.2,0-.2,0,0,0,0,.2,0,.3,0,0,.1.2.2.3-.2,0-.4,0-.5,0h0c-.9,0-1.9-.5-2.4-1.1-.3-.5-.4-.8-.2-1.4.1-.3.4-.8.6-.9.2-.2.7-.4,1.3-.4.9,0,1.6.3,1.8.7,0,.4,0,.7-.1,1.1,0,0,0,0,0,0,0,0,0,0,0,0-.5-.4-1.4-.7-1.9-.7h0c-.4,0-.8.1-1,.3-.1.1-.2.3-.2.4,0,.4.3.9,1.3.9h0c1,0,1.9-.3,2.3-.7.1,0,.3.2.5.3,0,0,0,0,0,0s0,0,0,0c.2-.5.1-1.2-.3-1.9-.3-.5-1-1-2.3-1h0c-1,0-2,.4-2.6,1.1-.8.9-.5,2.5,0,2.9,0,0,0,0,0,0s0,0,0,0c0-.1.1-.2.2-.3.6.8,1.6,1.2,2.8,1.2h.1c.3,0,.6,0,.9-.1,0,.1.1.3.2.4.1.2.2.4.3.6-.6,0-1.1.2-1.5.2-1.9,0-4-1-4.1-3.3,0-.8.1-1.3.5-2.1h0ZM26.5,53.7c2.1.1,4.3.6,5.8,3.1,0,.5.1,1,.2,1.5-.2,0-.3-.2-.5-.3-1.8-2.2-2.8-2.9-3.7-3.1,0,0,0,0,0,0,0,0,0,0,0,0,.7.4,1.8,1.2,2.9,2.6-.9-.3-1.7-.4-2.6-.5-.7-.8-1.2-1.7-1.5-2.5-.2-.4-.4-.7-.5-1ZM33.8,56.3l.2-1.6c.9-.1,1.9-.2,2.9-.3l-.2,4.6c-.7-1.1-1.7-1.8-2.7-2.5,0,0-.2-.1-.3-.2ZM37.5,31c0-.2,0-.3.3-.3s.3.1.3.3l.2,4.9h-.5s-.2-4.9-.2-4.9ZM39.3,31.1c0-.4.1-.5.4-.5s.4.2.3.5v4.8c-.2,0-.5,0-.7,0,0,0,0-4.8,0-4.8ZM41,36l.2-5c0-.2.1-.4.3-.4s.3.2.3.4l-.2,5c-.2,0-.3,0-.5,0ZM41.8,36l.3-5.1c0-.4,0-.7-.6-.7s-.6.2-.6.7v5.1c-.3,0-.5,0-.6,0v-5.1c0-.2,0-.4,0-.5-.1-.1-.3-.1-.5-.1s-.4,0-.5.2c-.1.1-.2.3-.2.5v5.1c0,0,0,0,0,0-.1,0-.3,0-.4,0v-5.1c-.1-.5-.3-.7-.7-.7s-.4,0-.5.2c-.1.1-.2.3-.2.5l.3,5.1c-.2,0-.3,0-.5,0l-.4-6.5h6.2l-.4,6.5c-.2,0-.3,0-.5,0ZM42.7,29c-.2,0-.6,0-1.3,0h-3.4c-.7,0-1.1,0-1.3,0-.3,0-.5-.1-.5-.2,0-.2-.1-.4-.1-.5h7.3c0,.1,0,.3-.1.5,0,.1-.2.2-.5.3ZM35.9,27.9c-.3,0-.4-.2-.4-.4h0c0-.2.1-.5.4-.5h7.6c.2,0,.3.1.3.4h0c0,.3-.2.5-.4.5h-7.5ZM35.4,24.8c.2,0,.5,0,.6,0v.3c.1.4,0,.6-.2.7h-.1s-.3-.9-.3-.9ZM43.1,24.4c0,0-.2,0-.2.1v.5c-.1.4-.1.8.4,1h.4c0,.2,0,.2,0,.3v.3c0,0-8.1,0-8.1,0v-.3c-.1-.1,0-.1,0-.1h.4c.5-.4.5-.9.5-1.2v-.5c-.1,0-.2-.1-.3-.1h-1c-.3,0-.4-.1-.4-.2v-.3c0,0,9.9,0,9.9,0v.3c-.1.1-.1.2-.4.2,0,0-1.1,0-1.1,0ZM43.9,24.8l-.3,1h-.1c-.2-.2-.3-.3-.3-.7v-.3c.2,0,.4,0,.7,0ZM44.3,23.4h-9.2c-1.4,0-1.5,0-1.6-.1,0,0-.2-.1-.2-.4s0-.3.2-.4c.2,0,.5-.1,2.3-.1h7.7c1.8,0,2.2,0,2.3.1.1,0,.2.2.2.4s0,.3-.2.4c-.1,0-.2.1-1.6.1ZM35.7,19.9c-.1.3-.1.6,0,1,0,0,0,0,0,0,0,0,0,.1,0,.2,0,0,0,0,0,.1,0,.2.2.3.3.4-.1,0-.3.1-.5.1s-.3,0-.4,0c0,0-.1,0-.2-.1,0,0,0,0,0,0,0,0,0,0,0,0,0,0,0,0,0,0,0,0,0,0,0-.1,0,0,0,0,0,0,0,0,0,0,0-.1,0,0,0,0,0,0,0,0,0,0,0-.1,0,0,0,0,0,0,0,0,0-.1,0-.1s0,0,0,0c0,0,0-.1,0-.2,0-.8.4-1.7.9-2.3-.1.7,0,1.4.2,1.7ZM36.6,16.2c.5.3,1,.8,1.3,1.4,0,.2-.2.4-.2.6-.2.5-.4,1-.5,1.7,0,.1,0,.3,0,.4h0c0,.2,0,.3,0,.4h0c0,.4.2.7.5.9h0c-.2,0-.4.1-.6.1-.6,0-1-.5-1.1-1,0,0,0-.1,0-.2,0-.5.1-.7.3-1.1h0c.6-1.4.7-2.4.2-3.2ZM41.4,20.6c0,.1,0,.2,0,.3s0,0,0,0c0,0,0,.1,0,.1h0c0,.1,0,.2,0,.2,0,0,0,0,0,0-.2.3-.5.5-.9.5s-.7-.2-.9-.5c0,0,0-.1,0-.2,0,0,0,0,0,0,0,0,0-.1,0-.2,0,0,0,0,0-.1,0,0,0,0,0-.1,0,0,0-.2,0-.3,0-.5.2-1.1.3-1.7.1-.4.2-.7.3-1,0,.1.2.3.3.5.5.7,1.2,1.6,1.2,2.4ZM41,18.7c-.2-.2-.4-.5-.6-.8-.3-.3-.5-.7-.8-1.1,0,0,0,0,0,0,0,0,0,0,0,0,0,.7-.2,1.3-.4,1.9-.2.5-.4,1.1-.4,1.7s0,.2,0,.3c0,0,0,0,0,.1v.2c0,.1,0,.2.1.3s0,.2.1.3c-.3,0-.5-.2-.7-.3-.3-.2-.4-.5-.5-.9h0c0,0,0-.1,0-.2,0,0,0-.1,0-.2h0c0-.1,0-.2,0-.2,0-.5.2-1,.3-1.5.2-.6.5-1.3.5-2.1s-.4-1.7-.8-2.1c2,.8,3.1,2.4,3.5,3.9,0,.2-.1.4-.2.6ZM17.9,26.1l14.4-4.7s0,0,0,0c0,0,0,0,0,0l-12.7,2.5c.8-1,1.6-1.9,2.5-2.7l10.6-1.4s0,0,0,0,0,0,0,0l-8.2-.5c.9-.7,1.9-1.3,2.9-1.9l6,.8h0s0,0,0,0c0,0,0,0,0,0l-4-1.7c.9-.4,1.9-.7,2.8-1l2.3,1.5s0,0,0,0,0,0,0,0c0,0,0,0,0,0l-1.2-1.7c1.2-.3,2.4-.5,3.6-.6.6.5,1,1.3,1,2s0,.7-.1,1c-.6-.9-1.5-1.4-2.2-1.6,0,0,0,0,0,0s0,0,0,0c.7.6.9,1.2.8,2,0,.6-.3,1-.5,1.5,0,0,0,.1,0,.2-.2-.5-.3-1,0-1.9,0,0,0,0,0,0s0,0,0,0c-1,.6-1.8,2.3-1.8,3.5s.1.9.4,1.1c-.9,0-1.1,0-1.2.2-.2.1-.3.4-.3.7s0,.5.3.7c.2.1.3.1,1,.2v.6c.2.3.5.4.7.4l.4,1.3c-.1,0-.2.2-.2.5,0,0,0,0,0,0l.2.4h0c-.1.1-.2.3-.2.5h0c0,.4.2.7.4.8,0,.2,0,.5.2.8,0,.2.2.3.4.4l.4,6.8c-.5,0-1,.1-1.5.2l.3-4.4s0,0,0,0c0,0,0,0,0,0l-1.2,4.5h-.8c-.5.2-1,.3-1.6.3l2.7-7.8s0,0,0,0c0,0,0,0,0,0l-4.6,7.8h0c0-.6-.4-1.6-1.5-2.2l5.4-8s0,0,0,0c0,0,0,0,0,0l-7.2,7.6c-1,0-2,.6-2.3,1.6,0,.2,0,.5,0,1l-.9,1c-.2-.8-.6-1.7-.9-2.4l10.4-10.2s0,0,0,0c0,0,0,0,0,0l-12.7,9c-.2-.5-.4-1-.5-1.4-.1-.4-.3-.7-.4-1.1l13.2-8.1s0,0,0,0c0,0,0,0,0,0l-15.8,6.6c.5-1.3,1.2-2.5,1.9-3.7h0ZM14.7,33.9l2.3-1.4c-.4,1.1-.6,2.4-.5,3.7l-2.4,1.7c.1-1.3.3-2.6.6-3.9ZM14.9,46.1c-.3-1.1-.5-2.2-.6-3.3l1.1-1c0,1.3,0,2.4.5,3.4l-.9,1ZM19.1,54.9c-.8-1.1-1.6-2.3-2.2-3.5l.9-1.4v.3c.4.5.6.9.9,1.3.4.5.7.9,1.1,1.3-.2,0-.4,0-.6-.1,0,0-.2,0-.2,0,0,0,0,.2,0,.2.1.4.3.7.6,1l-.5.9ZM19.4,53.1c.5.1,1.2.2,1.7.2.3,1,1.1,2,2.4,2.4h-.3c-.3,0-.7,0-1,.1-1.2-.7-2.3-1.7-2.8-2.8ZM22,56.2c.4,0,.8,0,1.2-.1.4,0,.9,0,1.3-.1.3,0,.5,0,.8,0h.1c.2,0,.5,0,.9,0,.3,0,.7,0,1,.1.2.3.4.7.7,1-.4,0-.9,0-1.3,0-.6-.1-1.1-.2-1.9-.2,0,0,0,0,0,0s0,0,0,0h0c.5.1.8.2,1.2.3,0,0,0,0,0,0,.3.6.7,1.1,1.1,1.6-1.8,0-3.6-.9-5.2-2.9ZM27.3,62.1c-1.2-.7-2.4-1.4-3.5-2.3l.4-1.2c.9.5,2,.8,3.4.8.1,0,.2.2.3.3,0,0-.6,2.3-.6,2.3ZM32.2,64c-1.7-.4-3-1.5-4-3.4.8.3,1.6.3,2.6.3,1.7,0,3.7,0,5.5,2h0c-1.3.2-3.5,0-5.1-.7,0,0,0,0,0,0,0,0,0,0,0,0,1.1,1,3,1.2,4.5,1.2s.3,0,.4,0c-.8.5-2.2.9-3.8.6ZM38,64.7c-.3,0-1.2.4-1.6.5-.5.1-.8,0-.9-.1,0-.2,0-.4.4-.6.2,0,1.8-.7,2.2-.9-.1.3-.2.7-.1,1ZM39.7,65.6c-.8,0-1.3-.5-1.3-1.4s0-.5.2-.7c.4,0,1.7,0,2.2,0,.1.2.2.5.2.7,0,.9-.5,1.4-1.3,1.4ZM43.8,65c0,.2-.3.3-.9.1-.5-.1-1.3-.4-1.6-.5,0-.1,0-.2,0-.3,0-.2,0-.5-.2-.7l2.2.9c.4.2.5.3.4.5ZM43.5,63.3c1.5-.8,3.2-1.2,5.2-1.3,0,0,0,0,0,0,0,0,0,0,0,0-1.4-.2-3,0-4.5.6.7-.4,1.3-.9,1.9-1.7,1.3-.5,2.5-.3,3.8,0,.6,0,1.3.1,1.9.1-1.6,1.8-4.7,4.2-8.2,2.5ZM53.1,61.5l-.3-1.1c1.5-.4,2.6-1.2,3.5-2.1l.2.6c-1.1,1-2.2,1.8-3.5,2.6ZM49.8,60.3c-.3,0-.6,0-1-.1,1.5-1,3.8-2,5.9-2.5,0,0,0,0,0,0,0,0,0,0,0,0-1.6.2-3.5.8-5.1,1.7.2-.3.5-.7.7-1.1,1.7-1.3,4.2-1.9,7.1-1.8-1.8,2.8-4.4,4.2-7.6,4ZM56.9,56c-.6,0-1.2,0-1.7,0,.2-.2.4-.5.6-.8,1.7-.7,2.9-1.5,3.6-2.4,0,0,0,0,0,0s0,0,0,0c-.4.3-.9.7-1.5,1,.4-.5.6-1.1.5-1.8h0c.4,0,.7-.1,1.1-.2.5,0,1.2-.2,1.7-.4-.7,2-2,4-4.2,4.5ZM60.8,54.2l-.3-.5c.4-.7.8-1.4,1.1-2.4,0,0,0-.1,0-.2,0,0-.1,0-.2,0-.4.1-.8.2-1.2.3.7-.4,1.3-1,1.8-1.5l.8,1.1c-.5,1.1-1.2,2.2-1.9,3.2ZM58.7,51.6c-.1,0-.3,0-.4,0,0-.4-.2-.7-.3-1.1,1-.6,2.3-1.4,2.8-2.1,0,0,0,0,0,0,0,0,0,0,0,0-.7.6-1.6,1.2-2.9,1.8-.1-.3-.3-.7-.5-1.1.3-.4.8-.7,1.3-1,.7-.3,1.5-.7,2.5-.9.7-.2,1.5-.5,2.2-.7-.3,1.7-2,4.2-4.6,5.1ZM64.6,45.7l-1.4-1.4c.4-1,.6-2,.8-3.1l1.2,1.1c-.1,1.2-.3,2.3-.6,3.4ZM65.2,37.4l-1.1-.8c0-.3,0-.6,0-.9,0,0,0-.2,0-.2s-.1,0-.2,0c-.2.2-.3.3-.5.5l-.8-.5c0-.2,0-.4,0-.5,0-.9-.2-2-.9-3.1l3,1.8c.3,1.2.5,2.5.6,3.8ZM47,21.7l14.6,4.7c.6,1.1,1.2,2.1,1.7,3.3l-15.8-6.3s0,0,0,0c0,0,0,0,0,0l11.8,7c0,.7-.1,1.5-.3,2.3,0,.1,0,.2,0,.3l-11.8-7.9s0,0,0,0c0,0,0,0,0,0l9.9,9.3c0,.6-.1,1.2-.2,1.9,0,.3,0,.7-.1,1l-1.2-1.2c0-.3,0-.5,0-.6-.2-.8-.9-1.4-2-1.5l-7.5-7.7s0,0,0,0c0,0,0,0,0,0l5.5,7.9c-.3.1-.5.3-.7.5-.4.4-.7.9-.7,1.5l-4.7-7.7s0,0,0,0c0,0,0,0,0,0l3,7.9c-.5,0-1-.1-1.6-.2-.3,0-.7,0-1-.1l-1.5-5s0,0,0,0c0,0,0,0,0,0l.5,4.8c-.5,0-1.1-.1-1.7-.2l.4-6.8c.2,0,.3-.2.4-.4,0-.2.2-.5.2-.8.3-.1.4-.4.4-.7h0c0-.3,0-.5-.2-.6v-.4c.1,0,.1,0,.1,0,0-.3,0-.4-.2-.5l.4-1.2c.3,0,.5-.1.6-.4v-.6c.9,0,1,0,1.1-.2.3-.2.3-.5.3-.7s-.1-.5-.3-.7c-.2-.1-.3-.1-1.3-.2.3-.2.4-.7.4-1.3,0-1-.5-2.1-1.4-2.9,0,0,0,0,0,0,0,0,0,0,0,0,0,.4,0,.7-.2,1,0,0,0-.1,0-.2-.4-.8-.8-1.6-.4-2.8,0,0,0,0,0,0,0,0,0,0,0,0-.4.4-.9,1-1.3,1.6-.6-1.4-1.7-2.7-3.4-3.4.5,0,1,0,1.5,0,.8,0,1.5,0,2.2.1l-.4,1.2s0,0,0,0c0,0,0,0,0,0,0,0,0,0,0,0l1-1.2c.6,0,1.2.2,1.8.3l-.9,1.3s0,0,0,0c0,0,0,0,0,0s0,0,0,0l1.7-1.2c.6.1,1.2.3,1.9.5l-2.1,1.8s0,0,0,0c0,0,0,0,0,0s0,0,0,0l3.3-1.4c.8.3,1.6.6,2.4,1l-4.9,1.9s0,0,0,0,0,0,0,0h0l6.4-1.2c1,.6,2,1.2,2.9,2l-8.4.5s0,0,0,0,0,0,0,0l10.1.7c1,.9,1.9,1.9,2.7,2.9l-12.6-2.1s0,0,0,0c0,0,0,0,0,0Z"/>
    <path class="cls-2" d="M36.7,41.1c.3,0,.5,0,.8,0,.1,0,.2,0,.2.2v.2c0,.1,0,.2-.2.2-.5,0-.8,0-1.3,0-.1,0-.2,0-.2-.2v-2.2c0-.1,0-.2.2-.2,0,0,.2,0,.2,0,.1,0,.2,0,.2.2,0,.7,0,1.1,0,1.8ZM39.4,41.6h-.2c-.1,0-.2,0-.2-.2-.3-.9-.5-1.3-.8-2.2,0,0,0-.2.1-.2h.3c.1,0,.2,0,.2.2.2.6.3,1,.6,1.6.2-.6.3-1,.5-1.6,0-.1,0-.2.2-.2h.2c0,0,.2,0,.1.2-.3.9-.5,1.3-.8,2.2,0,.1-.1.2-.2.2ZM41.4,41.6c-.1,0-.2,0-.3,0,0,0-.1,0,0-.2.3-.5.5-.7.8-1.1-.3-.4-.4-.7-.6-1.1,0,0,0-.2,0-.2.1,0,.2,0,.3,0,.1,0,.2,0,.3.2.2.3.2.4.4.7l.4-.6c0-.1.1-.2.3-.1.1,0,.2,0,.3,0,0,0,.1,0,0,.2-.3.4-.4.6-.7,1,.3.5.4.7.7,1.2,0,0,0,.2,0,.2-.1,0-.2,0-.4,0s-.2,0-.3-.2c-.2-.3-.3-.5-.4-.8-.2.3-.3.4-.5.7,0,.1-.1.1-.3.1ZM32,46.7c-.1,0-.1,0-.2,0-.1,0-.2,0-.3-.1-.4-.8-.6-1.2-.9-2.1,0,0,0-.2.1-.2.1,0,.2,0,.3,0,.1,0,.2,0,.2.1.2.6.4.9.6,1.5.2-.7.3-1,.5-1.7,0-.1,0-.2.2-.2.1,0,.2,0,.3,0,0,0,.2,0,.1.2-.3.9-.5,1.4-.8,2.3,0,.1,0,.2-.2.2ZM34.1,46.4c-.1,0-.2,0-.2-.2,0-.9,0-1.3,0-2.2s0-.2.2-.2c.6,0,.9,0,1.4-.1.1,0,.2,0,.2.2,0,0,0,.1,0,.2,0,.1,0,.2-.2.2-.4,0-.6,0-1,0,0,.2,0,.3,0,.4.3,0,.4,0,.7,0,.1,0,.2,0,.2.2v.2c0,.1,0,.2-.2.2-.3,0-.4,0-.7,0,0,.2,0,.3,0,.5.4,0,.6,0,1,0,.1,0,.2,0,.2.2s0,.1,0,.2c0,.1,0,.2-.2.2-.6,0-.9,0-1.5.1ZM37.2,46.2c-.1,0-.2,0-.3,0s-.2,0-.2-.2c0-.9,0-1.3,0-2.2,0-.1,0-.2.2-.2.3,0,.5,0,.8,0,.5,0,.9.3.9.8,0,.3-.1.5-.4.7.2.4.3.5.5.9,0,0,0,.2,0,.2-.1,0-.2,0-.3,0s-.2,0-.3-.2c-.2-.3-.2-.5-.4-.8-.1,0-.2,0-.3,0v.8c0,.1,0,.2-.2.2ZM37.8,44.2c-.2,0-.2,0-.4,0v.6c.2,0,.2,0,.4,0,.2,0,.3-.1.3-.3,0,0,0,0,0,0,0-.2-.1-.3-.3-.3ZM39.9,46.2c-.1,0-.2,0-.2-.2,0-.9,0-1.3,0-2.2s0-.2.2-.2h.3c.1,0,.2,0,.2.2,0,.9,0,1.3,0,2.2s0,.2-.2.2c0,0-.3,0-.3,0ZM42.1,46.2c-.1,0-.2,0-.2-.2,0-.7,0-1.1,0-1.8-.2,0-.3,0-.6,0-.1,0-.2,0-.2-.2v-.2c0-.1,0-.2.2-.2.7,0,1,0,1.8,0,.1,0,.2,0,.2.2v.2c0,.1,0,.2-.2.2-.2,0-.3,0-.6,0,0,.7,0,1.1,0,1.8s0,.2-.2.2c0,0-.3,0-.3,0ZM44,46.3c-.1,0-.2,0-.3,0,0,0-.2,0-.1-.2.4-.9.6-1.3.9-2.1,0-.1.1-.2.2-.2,0,0,.2,0,.3,0,.1,0,.2,0,.2.2.3.9.5,1.4.8,2.3,0,0,0,.2-.1.2-.1,0-.2,0-.3,0-.1,0-.2,0-.2-.2,0-.1,0-.2-.1-.3-.4,0-.6,0-1,0v.3c-.2.1-.2.2-.4.2ZM45.2,45.5c-.1-.3-.2-.5-.3-.8-.1.3-.2.5-.3.8.2,0,.3,0,.6,0ZM33.3,51.1c0,0-.2,0-.2,0-.2,0-.2,0-.3-.1-.4-.8-.6-1.3-1-2.1,0,0,0-.2.1-.2.1,0,.2,0,.3,0,.1,0,.2,0,.2.1.3.6.4.9.7,1.5.2-.7.3-1,.5-1.6,0-.1,0-.2.2-.2.1,0,.2,0,.3,0,0,0,.2,0,.1.2-.3.9-.5,1.4-.8,2.3,0,.1,0,.2-.3.2ZM35.5,50.9c-.1,0-.2,0-.2-.2,0-.9,0-1.3,0-2.2,0-.1,0-.2.2-.2.1,0,.2,0,.3,0,.1,0,.2,0,.2.2v2.2c0,.1,0,.2-.1.2,0,0-.2,0-.3,0ZM37.5,50.8c-.1,0-.2,0-.3,0-.1,0-.2,0-.2-.2,0-.9,0-1.3,0-2.2,0-.1,0-.2.2-.2.3,0,.5,0,.9,0,.6,0,.9.3.9.8,0,.3-.2.5-.4.7.2.4.3.5.5.9,0,0,0,.2,0,.2-.1,0-.2,0-.3,0-.2,0-.2,0-.3-.2-.2-.3-.3-.5-.4-.8-.1,0-.2,0-.3,0v.8c0,.1,0,.2-.2.2ZM38.1,48.8c-.2,0-.2,0-.4,0v.6c.2,0,.2,0,.4,0s.3-.1.3-.3-.1-.3-.3-.3ZM40.6,50.8c-.1,0-.2,0-.2-.2,0-.7,0-1.1,0-1.8-.2,0-.3,0-.6,0s-.2,0-.2-.2v-.2c0-.1,0-.2.2-.2.7,0,1.1,0,1.8,0,.1,0,.2,0,.2.2v.2c0,.1,0,.2-.2.2-.2,0-.3,0-.6,0v1.8c0,.1,0,.2-.2.2,0,0-.3,0-.3,0ZM43.8,50.9c0,0-.2,0-.2,0-.2,0-.2,0-.3-.2-.3-.9-.5-1.4-.8-2.3,0,0,0-.2.1-.2.1,0,.2,0,.3,0,.1,0,.2,0,.2.2.2.7.3,1,.6,1.6.3-.6.4-.9.6-1.5,0-.1.1-.2.2-.2.1,0,.2,0,.3,0,0,0,.2,0,.1.2-.3.9-.5,1.3-.9,2.2,0,.1,0,.2-.2.1ZM47.7,46.3c.2,0,.3,0,.3-.2s0-.2-.2-.2c0,0-.4-.3-.5-.3-.3-.2-.4-.4-.4-.7,0-.4.4-.7.9-.7.2,0,.5.1.6.3,0,0,0,.2,0,.2,0,0,0,0-.1.1,0,0-.2,0-.3,0,0,0-.2-.1-.3-.1-.2,0-.2,0-.2.2,0,0,0,.2.2.2,0,0,.4.3.5.3.3.2.4.4.4.7,0,.5-.4.7-.9.7-.3,0-.6-.2-.8-.4,0,0,0-.2,0-.3,0,0,0,0,.1-.1,0,0,.2,0,.2,0,.2.2.3.2.5.3ZM46.4,50.7c.2,0,.3,0,.3-.2s0-.2-.2-.2c0,0-.4-.3-.5-.3-.3-.2-.4-.4-.4-.7,0-.4.4-.7.9-.7.2,0,.5.1.6.3,0,0,0,.2,0,.2,0,0,0,0-.1.1,0,0-.2,0-.2,0,0,0-.2-.1-.3-.1-.1,0-.2,0-.2.2,0,0,0,.2.2.2,0,0,.4.3.5.3.3.2.4.4.4.7,0,.5-.4.7-.9.7-.3,0-.6-.2-.8-.4,0,0,0-.2,0-.3,0,0,0,0,.1-.1,0,0,.2,0,.2,0,.2.2.3.2.4.3ZM6.2,43.4c0,.1,0,.2-.2.2h-.3c-.1,0-.2,0-.2-.2v-1.9h-.3c-.1,0-.2,0-.2,0v-.2c0-.2,0-.2.2-.3h.2c.1-.1.2-.1.3-.1h.2c.1,0,.2,0,.2.2v2.4ZM8.2,43.6c-.7,0-1.1-.4-1.1-.8s.2-.5.4-.7c-.3-.1-.4-.4-.4-.6,0-.4.4-.8,1.1-.8s1.1.4,1.1.8-.1.5-.4.6c.3.1.4.4.4.7,0,.5-.4.8-1.1.8ZM8.2,42.4c-.3,0-.4.2-.4.3s.2.3.4.3.4-.2.4-.3-.1-.3-.4-.3ZM7.8,41.6c0,.2.1.3.4.3s.4-.2.4-.3-.1-.3-.4-.3-.4.1-.4.3ZM70.3,43.6v-.2c-.2-.1-.1-.2,0-.3.4-.2.7-.4.8-.6-.1,0-.3.2-.5.2-.6,0-.9-.4-.9-.9s.4-1,1.1-1,1.1.4,1.1,1.1-.5,1.5-1.3,1.9c-.1,0-.2,0-.3-.1ZM70.3,41.7c0,.2.2.4.4.4s.4-.2.4-.4-.2-.4-.4-.4-.4.2-.4.4ZM73.6,43.6c-.7,0-1.1-.4-1.1-.8s.2-.5.4-.7c-.3-.1-.4-.4-.4-.6,0-.4.4-.8,1.1-.8s1.1.4,1.1.8-.1.5-.4.6c.3.1.4.4.4.7,0,.5-.4.8-1.1.8ZM73.6,42.4c-.3,0-.4.2-.4.3s.2.3.4.3.4-.2.4-.3-.2-.3-.4-.3ZM73.2,41.6c0,.2.1.3.4.3s.4-.2.4-.3-.1-.3-.4-.3-.4.1-.4.3ZM39.2,24.3h-1.8s0,0-.1,0c0,0,0,0,0,.1,0,0,0,.5.1.9.1.5.5.7,1,.7s.9-.3.9-.7c0-.3,0-.8,0-.9,0,0,0-.1,0-.1,0,0,0,0-.1,0ZM38.9,25.3c0,.3-.2.5-.6.5s-.6-.1-.6-.4c0-.1,0-.3,0-.5.3-.2,1-.2,1.4,0,0,.2,0,.4,0,.5ZM42,24.3h-1.8s0,0-.1,0c0,0,0,0,0,.1h0c0,.5,0,.5,0,.9,0,.5.4.7.9.7h0c.5,0,.9-.3,1-.7,0-.3.1-.9.1-.9,0,0,0,0,0-.1,0,0,0,0-.1,0ZM41.7,25.3c0,.3-.3.5-.7.5-.3,0-.5-.1-.6-.4,0-.3,0-.3,0-.5.4-.2,1.1-.1,1.4,0,0,.1,0,.3,0,.5ZM20.2,63l.2-.2c-.4-.3-.8-.7-1.1-1l-.2.2c.2.3.1.6-.4,1.2l-1.1,1.1c-.7.7-1.6.9-2.4,0-.7-.7-.6-1.5.2-2.3l1.3-1.3c.5-.5.7-.5,1-.3l.2-.2c-.5-.5-.9-1-1.4-1.5l-.2.2c.2.3.2.5-.4,1l-1.4,1.3c-.9.8-1.2,2.1,0,3.3,1.2,1.2,2.5.9,3.3,0l1.1-1.2c.6-.6.9-.7,1.2-.6ZM25.6,66.6v-.2c-.3-.2-.8-.5-1.2-.8v.2c0,.2.1.6-.3,1.3l-.9,1.6-.9-4.1c0-.3-.1-.4-.2-.5-.2-.2-.7-.5-1-.8v.2c0,.1,0,.3,0,.9,0,.2,0,.3,0,.5l-1.4,2.1c-.5.7-.8.8-1.1.7v.2c.3.3.7.6,1.1.9v-.2c0-.3-.1-.5.4-1.3l1.3-1.8,1.1,5.1.3.2,1.9-3.2c.4-.7.7-.9,1.1-.8h0ZM26.7,67.1c.3.2.4.3,0,1l-1.1,2.6c-.3.7-.4.7-.8.7v.2c.5.3,1.2.6,1.8.8v-.2c-.2-.2-.2-.3,0-1l1.1-2.6c.3-.7.4-.7.8-.7v-.2c-.5-.2-1.2-.5-1.8-.8v.2ZM33.3,69.3c.4.2.5.4.1.8l-2,2.4-.6-3.1c0-.4,0-.6.4-.6v-.2c-.6-.2-1.3-.4-2-.7v.2c.2.2.2.4.4,1.1l1,4.7h.3c0,0,3-3.5,3-3.5.4-.5.7-.7,1-.8v-.2c-.5,0-1.1-.2-1.6-.3,0,0,0,.2,0,.2ZM39.4,74.2c-.3.2-.8.3-1.7.2-.7,0-.7,0-.8-.1,0,0,0-.1,0-.3,0-.5,0-1.2.2-1.9,1,0,1.2.1,1.4.2.2.1.3.2.3.4h.2s0-1.5,0-1.5h-.2c0,.2-.1.3-.4.4-.3,0-.6,0-1.4,0,0-.5,0-1,.1-1.1,0-.1,0-.3.1-.3,0,0,.1,0,.7,0,1,0,1.3.2,2,.7h.2c0-.1-.3-1.1-.3-1.1-.6,0-1.2,0-1.9,0-.8,0-1.6-.1-2.2-.2v.2c.3.1.4.2.3,1l-.3,2.8c0,.7-.2.8-.5.9v.2c.6,0,1.7.2,2.4.2.7,0,2,0,2.5,0l.3-1.3h-.2c-.2.2-.5.4-.7.6h0ZM46.9,73.8c-.5,0-1-.7-1.9-1.6.9-.3,1.3-.9,1.2-1.6-.1-.9-.9-1.4-2.4-1.2-.9.2-1.9.2-2.5.2v.2c.4,0,.5.1.6.9l.3,2.8c0,.7,0,.8-.4.9v.2c.5,0,1.4-.1,2.1-.2v-.2c-.4,0-.5-.1-.6-.9v-.9c0,0,.2,0,.4,0,1.3,1.4,1.8,2,2.8,1.8.4,0,.7-.3.9-.7h-.2c0,0-.2,0-.3,0ZM44,72.1c-.3,0-.6,0-.9,0l-.2-2.1c.2,0,.5,0,.7,0,.9-.1,1.4.2,1.5.9.1.6-.2,1-1,1.2ZM50.1,70c-1.1.1-1.7.2-1.9-.4-.1-.3,0-.8.8-1,.8-.3,1.5,0,2.2.4l.2-.2-.8-1.1h-.1c0,0-.1.1-.2.1-.4.1-.7,0-1.4.2-1,.3-1.7,1.2-1.4,2.1.4,1.1,1.5,1,2.5.9,1.1-.1,1.7-.2,1.9.4.1.4-.1.9-.8,1.1-1.1.3-1.9.1-2.8-.5l-.2.2.7,1.3h.1c0,0,.2-.2.3-.2.5-.2.9,0,1.9-.3.9-.3,1.8-1.1,1.4-2.2-.3-1.1-1.4-1-2.4-.9h0ZM55.3,70l-1.3-2.5c-.3-.7-.3-.8,0-1v-.2c-.7.3-1.3.6-1.9.9v.2c.5,0,.6,0,.9.6l1.2,2.6c.3.7.3.8,0,1v.2c.7-.3,1.4-.6,2-.9v-.2c-.5,0-.6,0-.9-.6ZM59.5,67.4l-1.8-2.5c-.2-.3-.2-.4,0-.6.4-.3,1-.3,1.8-.2v-.2c.1,0-1-.8-1-.8-.5.4-1.1.8-1.8,1.4-.8.5-1.3.9-1.9,1.2l.4,1.3h.2c.1-.9.4-1.4.8-1.7.2-.2.3-.2.5.2l1.7,2.6c.4.6.4.7.2,1v.2c.7-.4,1.3-.8,1.9-1.2v-.2c-.5.2-.6.1-1-.5ZM64.3,63.2l-.9-.8-.2-2.2c0-.8-.1-1.1,0-1.4l-.2-.2c-.3.4-.8.9-1.1,1.3l.2.2c.3-.2.6,0,.7.4l.2,1.7-1.8-.3c-.5,0-.6-.2-.4-.5l-.2-.2c-.5.5-1.1,1-1.7,1.5l.2.2c.3,0,.5,0,1,0l2.7.4.7.8c.5.5.5.6.3,1l.2.2c.5-.5,1-1,1.5-1.5l-.2-.2c-.3.2-.4.2-1-.3ZM8.6,24.7c.1,0,.3,0,.5,0l2.2,1.2c.8.4.9.7.8,1h.2c.2-.4.4-.8.7-1.3h-.2c-.2.1-.6.2-1.3-.2l-2-1.1,5-1.2.2-.3-3.1-2c-.7-.5-.8-.7-.7-1.1h-.2c-.3.3-.6.7-.9,1.2h.2c.3-.1.5-.1,1.3.3l1.7,1-4.2,1c-.3,0-.4.2-.5.2-.1.2-.5,1-.7,1.4h.2c.1,0,.3-.1.8-.3ZM13.5,20c1.1,1,2.8,1,3.9-.3,1.1-1.2,1-2.9-.1-3.9s-2.8-1-3.9.3c-1.1,1.2-.9,2.9.1,3.9ZM13.7,16.4c.6-.7,1.7-.6,2.8.3,1,.9,1.2,2,.6,2.7-.6.7-1.7.6-2.8-.3-1.1-.9-1.2-2-.6-2.7ZM17.7,13.6l1.8,2.2c.5.6.5.7.2,1l.2.2c.5-.4,1-.8,1.6-1.3v-.2c-.5.2-.6.2-1-.4l-.6-.7c.1-.1.3-.2.4-.3,1.8.6,2.6.9,3.4.3.4-.2.5-.6.5-1h-.2c0,.1,0,.2-.2.3-.5.3-1.3-.1-2.5-.5.6-.7.7-1.4.3-1.9-.5-.7-1.4-.9-2.9.2-.6.4-1.5,1.2-2,1.6v.2c.5-.2.6-.2,1.1.4ZM18.9,11.8c.8-.6,1.3-.5,1.8,0,.4.5.3,1-.3,1.5-.2.2-.5.4-.7.5l-1.3-1.7c.2-.1.4-.3.6-.5ZM22.5,10.5c.2-.8.5-1.3.9-1.6.3-.2.4-.1.5.2.5.9,1.3,2.6,1.5,3,.2.4.1.6-.1.8v.2c.7-.3,1.4-.7,2.1-.9v-.2c-.4.1-.6,0-.9-.4-.2-.4-1-2-1.5-3-.2-.4-.1-.4.2-.6.5-.2,1-.1,1.8.2l.2-.2-.9-1c-.7.3-1.4.6-2.1,1-.7.4-1.4.7-2.1,1.1l.3,1.3s.2,0,.2,0ZM28.4,7.5l.9,2.7c.2.7.2.8-.2,1v.2c.7-.2,1.4-.5,2-.6v-.2c-.4,0-.6,0-.8-.7l-.4-1.3c.7-.3,1.6-.5,2.4-.6l.3,1.3c.2.7.1.8-.2,1v.2c.7-.2,1.4-.3,2.1-.4v-.2c-.4,0-.5,0-.7-.8l-.6-2.8c-.2-.7-.1-.8.2-1v-.2c-.7.1-1.4.3-2.1.4v.2c.4,0,.5,0,.7.8l.2.9c-.8.2-1.6.5-2.4.7l-.3-.9c-.2-.7-.2-.8.2-1v-.2c-.7.2-1.5.4-2.1.7v.2c.5,0,.6,0,.8.7ZM35.8,5.8l.3,2.8c0,.7,0,.9-.4,1v.2c.6,0,1.4-.1,2.2-.2.7,0,1.4,0,2.1,0l.5-1.3h-.2c-.2.2-.5.4-.8.6-.3.1-.6.2-1.4.3-.6,0-.7,0-.7,0s0-.2-.1-.3c0-.2,0-1-.2-1.8.8,0,1.1,0,1.4,0,.2,0,.3.2.4.4h.2s0-1.5,0-1.5h-.2c0,.2,0,.3-.3.5-.2,0-.4.1-1.4.2,0-.4,0-.8,0-1.2,0-.2,0-.2,0-.3,0,0,0,0,.6,0,1.2,0,1.7,0,2.4.5l.2-.2-.5-.9c-.6,0-1.3,0-2.1,0-.7,0-1.7.1-2.4.2v.2c.4,0,.5.1.5.9ZM42.4,9.5c-.4-.1-.5-.4-.2-.8l.4-.6h1c.3.2.7.2,1.1.3l.2.8c.1.4,0,.6-.3.7v.2c.6.1,1.3.3,2.1.4v-.2c-.2-.2-.3-.4-.5-1l-1.4-4c0-.3-.1-.3-.3-.4-.5,0-.9-.1-1.3-.2v.2c.1,0,.3,0,.4.2.2.2.2.3,0,.4l-2,3c-.4.6-.6.8-.9.9v.2c.5,0,1.1,0,1.7.1,0,0,0-.2,0-.2ZM43.9,6l.6,1.8c-.3,0-.5,0-.8,0-.3,0-.5,0-.8-.1l1-1.6ZM47.8,10.6c.5.2.7.5,1.6.9.9.3,2.1.1,2.5-.9.4-1.1-.6-1.7-1.5-2.2-1-.6-1.5-.8-1.3-1.4.1-.3.5-.6,1.2-.3.8.3,1.2.9,1.5,1.6h.2s0-1.4,0-1.4h-.1c0,0-.1,0-.2,0-.4-.1-.5-.4-1.3-.6-1-.3-2.1,0-2.4.9-.4,1.1.6,1.7,1.4,2.2,1,.5,1.5.8,1.3,1.4-.1.4-.6.6-1.3.4-1-.3-1.5-1-1.8-2h-.2s-.2,1.5-.2,1.5h.1c.1,0,.2,0,.4,0ZM54.7,13.4c-.3-.2-.3-.4-.1-.9.2-.4,1-2,1.6-2.9.2-.3.3-.4.6-.2.4.3.7.8.9,1.6h.2s.3-1.3.3-1.3c-.7-.4-1.3-.8-2-1.2-.7-.4-1.4-.7-2.1-1l-.9,1,.2.2c.8-.3,1.3-.4,1.8-.2.3.1.3.2.2.6-.5,1-1.4,2.6-1.6,3-.2.4-.4.5-.8.4v.2c.5.3,1.2.7,1.8,1,0,0,.1-.2.1-.2ZM57.4,14c-.4.6-.6.6-.9.5v.2c.4.3,1,.8,1.6,1.3.6.4,1.1.9,1.6,1.4l1.2-.7v-.2c-.5,0-.8,0-1.2,0-.3,0-.6-.2-1.3-.7-.5-.4-.5-.4-.5-.5,0,0,0-.2.1-.3.1-.2.6-.8,1.1-1.5.6.4.9.7,1,.9.1.2,0,.4,0,.5l.2.2,1-1.1-.2-.2c-.2.1-.3.2-.5.1-.2,0-.4-.2-1.2-.8.3-.4.5-.7.7-.9,0-.1.2-.2.2-.2,0,0,.1,0,.5.3.9.7,1.2,1.1,1.4,2h.2s.3-1,.3-1c-.5-.4-1-.9-1.6-1.3-.5-.4-1.4-1.1-1.9-1.4v.2c.1.3.1.4-.3,1,0,0-1.7,2.3-1.7,2.3ZM60.9,18.1l-.2.2c.4.4.9.9,1.4,1.5l.2-.2c-.2-.3-.2-.4.4-.9l.7-.6c.1.1.2.2.4.4-.5,1.8-.8,2.6,0,3.4.3.3.7.5,1,.4v-.2c-.1,0-.2,0-.3-.2-.4-.4,0-1.3.4-2.5.7.6,1.4.6,2,.2.7-.6.8-1.5-.4-2.9-.5-.6-1.3-1.4-1.7-1.9l-.2.2c.2.3.2.4-.4,1l-2.1,1.9c-.5.5-.7.5-1,.3ZM65.3,16.3c.2.2.4.4.5.5.6.7.6,1.3,0,1.8-.5.4-1,.4-1.6-.2-.2-.2-.4-.5-.6-.7,0,0,1.6-1.4,1.6-1.4ZM64.7,22.7h-.2c.3.6.6,1,.8,1.4h.2c0-.5,0-.8.8-1.2l2-1.2-1.5,4.9v.3c.1,0,3.4-1.7,3.4-1.7.8-.4,1.1-.3,1.3,0h.2c-.2-.6-.4-1.1-.7-1.5h-.2c0,.5,0,.7-.8,1.1l-1.7.9,1.3-4.1c.1-.3,0-.4,0-.5-.1-.2-.6-.9-.8-1.3h-.2c0,.3,0,.5,0,1,0,.1-.1.3-.3.4l-2.1,1.3c-.7.4-1,.4-1.3.2Z"/>
  </g>
</svg>